<svg width="28" height="32" viewBox="0 0 28 32" fill="none" xmlns="http://www.w3.org/2000/svg">
<path d="M23.1467 9.68666L14 17.38L4.85338 9.68666M3.77421 7.13999C3.46479 7.13999 3.16805 7.28047 2.94925 7.53052C2.73046 7.78057 2.60754 8.11971 2.60754 8.47333V23.5467C2.60754 23.9003 2.73046 24.2394 2.94925 24.4895C3.16805 24.7395 3.46479 24.88 3.77421 24.88H24.2259C24.5353 24.88 24.832 24.7395 25.0508 24.4895C25.2696 24.2394 25.3925 23.9003 25.3925 23.5467V8.45333C25.3925 8.09971 25.2696 7.76057 25.0508 7.51052C24.832 7.26047 24.5353 7.12 24.2259 7.12H3.77421V7.13999Z" stroke="black" stroke-width="1.25" stroke-linecap="round" stroke-linejoin="round"/>
</svg>
