<svg width="22" height="20" viewBox="0 0 22 20" fill="none" xmlns="http://www.w3.org/2000/svg">
<g clip-path="url(#clip0_26_29)">
<path d="M11 10C12.0878 10 13.1512 9.70676 14.0556 9.15735C14.9601 8.60794 15.6651 7.82705 16.0813 6.91342C16.4976 5.99979 16.6065 4.99446 16.3943 4.02455C16.1821 3.05465 15.6583 2.16373 14.8891 1.46447C14.1199 0.765206 13.1399 0.289002 12.073 0.0960758C11.0061 -0.0968503 9.90023 0.00216643 8.89524 0.380605C7.89025 0.759043 7.03126 1.39991 6.42692 2.22215C5.82257 3.0444 5.5 4.0111 5.5 5C5.50146 6.32568 6.08139 7.59668 7.11252 8.53407C8.14366 9.47147 9.54176 9.99868 11 10ZM11 1.66667C11.7252 1.66667 12.4341 1.86217 13.0371 2.22844C13.6401 2.59471 14.11 3.1153 14.3876 3.72439C14.6651 4.33348 14.7377 5.0037 14.5962 5.6503C14.4547 6.29691 14.1055 6.89085 13.5927 7.35703C13.0799 7.8232 12.4266 8.14067 11.7153 8.26929C11.0041 8.3979 10.2668 8.33189 9.59683 8.0796C8.92683 7.82731 8.35418 7.40007 7.95128 6.8519C7.54838 6.30374 7.33333 5.65927 7.33333 5C7.33333 4.11595 7.71964 3.2681 8.40727 2.64298C9.09491 2.01786 10.0275 1.66667 11 1.66667Z" fill="black"/>
<path d="M11 11.6667C8.81271 11.6689 6.7157 12.4597 5.16905 13.8658C3.6224 15.2718 2.75243 17.1782 2.75 19.1667C2.75 19.3877 2.84658 19.5996 3.01849 19.7559C3.19039 19.9122 3.42355 20 3.66667 20C3.90978 20 4.14294 19.9122 4.31485 19.7559C4.48676 19.5996 4.58333 19.3877 4.58333 19.1667C4.58333 17.6196 5.25937 16.1358 6.46273 15.0419C7.66609 13.9479 9.29819 13.3333 11 13.3333C12.7018 13.3333 14.3339 13.9479 15.5373 15.0419C16.7406 16.1358 17.4167 17.6196 17.4167 19.1667C17.4167 19.3877 17.5132 19.5996 17.6852 19.7559C17.8571 19.9122 18.0902 20 18.3333 20C18.5764 20 18.8096 19.9122 18.9815 19.7559C19.1534 19.5996 19.25 19.3877 19.25 19.1667C19.2476 17.1782 18.3776 15.2718 16.831 13.8658C15.2843 12.4597 13.1873 11.6689 11 11.6667Z" fill="black"/>
</g>
<defs>
<clipPath id="clip0_26_29">
<rect width="22" height="20" fill="white"/>
</clipPath>
</defs>
</svg>
